<svg xmlns="http://www.w3.org/2000/svg" viewBox="0 0 512 512"><path d="M471.055 200.386l-428.85.7c-7.183-4.142-10.25-53.892-6.107-61.074l72.387-125.587A28.88 28.88 0 0 1 133.435 0h245.14a28.89 28.89 0 0 1 24.929 14.385l73.417 126.917c4.15 7.173 1.305 54.932-5.867 59.084z" fill="#ffd399"/><path d="M471.055 200.386l-216.45.35L255 0h123.576a28.89 28.89 0 0 1 24.929 14.385l73.417 126.917c4.15 7.173 1.305 54.932-5.867 59.084z" fill="#ffc477"/><path d="M270.005 0v161.2l-30.01-.1V0z" fill="#fffce5"/><path d="M270.005 0v161.2L255 161.16V0z" fill="#ffe89c"/><path d="M478.943 151.156v325.56c0 19.457-15.836 35.283-35.293 35.283H68.35c-5.932 0-11.534-1.47-16.446-4.072-9.153-4.842-15.926-13.575-18.097-23.99a35.12 35.12 0 0 1-.75-7.223v-324.37c0-14.035 11.424-25.46 25.47-25.46h396.137c3.27 0 6.382.65 9.233 1.83 8.824 3.63 15.047 12.324 15.047 22.438z" fill="#ffc477"/><path d="M478.943 151.156v325.56c0 19.457-15.836 35.283-35.293 35.283H255V126.887h199.664c13.385 0 24.28 10.884 24.28 24.27z" fill="#ffb655"/><path d="M324.145 295.405l-77.618 77.608a14.93 14.93 0 0 1-10.604 4.402 14.97 14.97 0 0 1-10.614-4.402l-36.374-36.374c-5.862-5.852-5.862-15.356 0-21.218s15.366-5.862 21.218 0l25.77 25.77 67.005-67.005c5.852-5.862 15.356-5.862 21.218 0s5.86 15.356-.001 21.22z" fill="#b5b51f"/><path d="M324.145 295.405L255 364.54v-42.426l47.928-47.928c5.852-5.862 15.356-5.862 21.218 0s5.86 15.356-.001 21.22z" fill="#98981a"/></svg>