<svg xmlns="http://www.w3.org/2000/svg" viewBox="0 0 511.999 511.999"><path d="M121.18 441.666a15.03 15.03 0 0 1-15.025-15.025V65.204a10.47 10.47 0 0 0-6.726-9.739L29.757 29.08a15.03 15.03 0 0 1-8.73-19.372A15.03 15.03 0 0 1 40.4.978l69.674 26.385c15.63 5.92 26.133 21.126 26.133 37.84V426.64a15.03 15.03 0 0 1-15.026 15.026zm370.77-26.53c0 34.026-27.676 61.7-61.7 61.7H156.346c-8.294 0-15.025-6.73-15.025-15.025 0-8.304 6.73-15.025 15.025-15.025h273.9c17.45 0 31.642-14.203 31.642-31.652 0-8.294 6.73-15.025 15.025-15.025s15.026 6.732 15.026 15.026z" fill="#b08763"/><path d="M121.18 411.616c-27.677 0-50.192 22.516-50.192 50.192S93.505 512 121.18 512s50.19-22.516 50.19-50.192-22.516-50.192-50.19-50.192z" fill="#6c5d58"/><path d="M427.934 194.252V374.97c0 19.172-15.606 34.777-34.777 34.777H212.44c-19.172 0-34.767-15.606-34.767-34.777V194.252c0-19.172 15.596-34.777 34.767-34.777h180.717c19.172 0 34.778 15.605 34.778 34.777z" fill="#ffc477"/><path d="M427.934 194.252V374.97c0 19.172-15.606 34.777-34.777 34.777h-90.36v-250.27h90.36c19.17 0 34.777 15.605 34.777 34.777z" fill="#ffb655"/><path d="M348.863 159.475v65.357c0 25.402-20.664 46.066-46.066 46.066s-46.066-20.664-46.066-46.066v-65.357h92.132z" fill="#fffce5"/><path d="M302.798 270.898V159.475h46.066v65.357c-.001 25.402-20.664 46.066-46.066 46.066z" fill="#ffe89c"/><path d="M491.95 415.135c0 34.026-27.676 61.7-61.69 61.7h-127.46v-30.05h127.46c17.45 0 31.642-14.203 31.642-31.652 0-8.294 6.73-15.025 15.025-15.025s15.024 6.73 15.024 15.025z" fill="#8a6645"/></svg>