<svg xmlns="http://www.w3.org/2000/svg" width="30" height="30" fill="none"><path d="M29.38 13.705h-2.325c-.6-5.634-5.127-10.16-10.76-10.76V.62A.62.62 0 0 0 15.677 0h-1.353a.62.62 0 0 0-.619.619v2.325c-5.634.6-10.16 5.127-10.76 10.76H.62a.62.62 0 0 0-.619.619v1.354a.62.62 0 0 0 .619.619h2.325c.6 5.634 5.127 10.16 10.76 10.76v2.325a.62.62 0 0 0 .619.619h1.354a.62.62 0 0 0 .619-.619v-2.325c5.634-.6 10.16-5.127 10.76-10.76h2.325a.62.62 0 0 0 .619-.619v-1.353a.62.62 0 0 0-.619-.619zM7.7 16.295a.62.62 0 0 0 .619-.619v-1.353a.62.62 0 0 0-.619-.619H5.692a9.43 9.43 0 0 1 8.012-8.013V7.7a.62.62 0 0 0 .619.619h1.353a.62.62 0 0 0 .618-.619V5.692a9.43 9.43 0 0 1 8.013 8.013H22.3a.62.62 0 0 0-.619.619v1.354a.62.62 0 0 0 .619.619h2.008a9.43 9.43 0 0 1-8.012 8.013V22.3a.62.62 0 0 0-.619-.618h-1.354a.62.62 0 0 0-.619.618v2.008a9.43 9.43 0 0 1-8.013-8.013H7.7z" fill="#fff"/></svg>