<svg xmlns="http://www.w3.org/2000/svg" viewBox="0 0 512 512"><path d="M329.93 52.815v50.412H184.383V52.815c0-15.68 12.75-28.44 28.43-28.44h88.684c15.682-.001 28.432 12.76 28.432 28.44z" fill="#b5b51f"/><path d="M329.93 52.815v50.412h-73.124V24.374h44.692c15.682-.001 28.432 12.76 28.432 28.44z" fill="#98981a"/><path d="M387.193 105.477v97.975c0 8.3-6.72 15-15 15H141.43c-8.3 0-15-6.7-15-15v-97.975c0-17.78 14.46-32.252 32.252-32.252h196.25c17.8.001 32.26 14.472 32.26 32.252z" fill="#ffc477"/><path d="M372.192 218.453H256.807V73.226h98.125c17.79 0 32.262 14.47 32.262 32.252v97.975c-.001 8.3-6.72 15-15.002 15z" fill="#ffb655"/><path d="M271.807 73.226v51.963a15.01 15.01 0 0 1-15.001 15.001 15.01 15.01 0 0 1-15.001-15.001V73.226h30.002zm-57.423 0v51.963a15.01 15.01 0 0 1-15.001 15.001c-8.3 0-15-6.72-15-15V73.226h30.002z" fill="#fffce5"/><path d="M329.93 73.226v51.963c0 8.28-6.7 15-15 15a15.01 15.01 0 0 1-15.001-15.001V73.226h30.002z" fill="#ffe89c"/><path d="M438.665 236.854l-32.852 233.51c-1.05 7.5-7.48 12.91-14.83 12.91a15.08 15.08 0 0 1-2.11-.15c-4.2-.6-19.77-11.23-33.872-22.6-13.83-11.17-33.012-12.95-48.752-4.68l-29.66 15.57a43.49 43.49 0 0 1-4.78 2.16c-4.82 1.86-9.9 2.84-15 2.96-5.05.1-10.13-.63-15-2.23-1.77-.58-3.5-1.28-5.22-2.1l-34.422-16.36c-16.14-7.67-35.252-4.96-48.722 6.78-11.8 10.28-24.17 19.38-28.06 19.94-8.2 1.18-15.81-4.52-16.98-12.72l-33.44-232.92c-2.3-16 7.72-31.332 23.29-35.652L248.146 159.6c2.83-.8 5.75-1.18 8.66-1.18a32.29 32.29 0 0 1 8.62 1.18l149.937 41.682c15.532 4.3 25.553 19.61 23.302 35.562z" fill="#b5b51f"/><path d="M438.665 236.854l-32.852 233.51c-1.05 7.5-7.48 12.91-14.83 12.91a15.08 15.08 0 0 1-2.11-.15c-4.2-.6-19.77-11.23-33.872-22.6-13.83-11.17-33.012-12.95-48.752-4.68l-29.66 15.57a43.49 43.49 0 0 1-4.78 2.16c-4.82 1.86-9.9 2.84-15 2.96V158.43a32.29 32.29 0 0 1 8.62 1.18l149.937 41.682c15.532 4.3 25.553 19.61 23.302 35.562z" fill="#98981a"/><path d="M271.807 161.38v312.195c-4.82 1.86-9.9 2.84-15 2.96-5.05.1-10.13-.63-15-2.23V161.37l6.34-1.76c2.83-.8 5.75-1.18 8.66-1.18a32.29 32.29 0 0 1 8.62 1.18l6.382 1.77z" fill="#d2d224"/><path d="M507.89 469.535a15.01 15.01 0 0 1-21.201.58c-12.33-11.68-31.892-11.93-44.522-.58-22.25 19.99-55.773 21.47-79.704 3.5l-13.77-10.33c-11.76-8.82-28.1-8.72-39.752.26l-15.14 11.67c-10.84 8.35-23.87 12.68-36.992 12.97l-1.38.01c-13.01 0-26.03-4-37.002-11.99l-18.08-13.17c-11.89-8.68-28.24-8.34-39.762.82l-10.2 8.1c-23.96 19.03-57.953 18.09-80.824-2.24l-.26-.22a32.72 32.72 0 0 0-44.112.42c-6.08 5.63-15.57 5.26-21.2-.82-5.62-6.08-5.25-15.57.83-21.2 23.85-22.05 60.133-22.41 84.414-.83l.25.22c11.96 10.63 29.72 11.12 42.242 1.18l10.2-8.1c22.05-17.52 53.353-18.17 76.104-1.57l18.07 13.17c6.12 4.46 13.46 6.53 20.71 6.23 6.64-.27 13.2-2.52 18.68-6.75l15.14-11.67c22.29-17.17 53.573-17.37 76.074-.48l13.76 10.33c12.51 9.38 30.02 8.6 41.652-1.84a62.64 62.64 0 0 1 41.992-16.091h.82c15.84.2 30.892 6.32 42.382 17.2 6.02 5.702 6.28 15.192.58 21.212z" fill="#b4deb2"/><path d="M271.807 161.38v312.195c-4.82 1.86-9.9 2.84-15 2.96V158.43a32.29 32.29 0 0 1 8.62 1.18l6.38 1.77z" fill="#b5b51f"/><path d="M507.89 469.535a15.01 15.01 0 0 1-21.201.58c-12.33-11.68-31.892-11.93-44.522-.58-22.25 19.99-55.773 21.47-79.704 3.5l-13.77-10.33c-11.76-8.82-28.1-8.72-39.752.26l-15.14 11.67c-10.84 8.35-23.87 12.68-36.992 12.97v-29.99c6.64-.27 13.2-2.52 18.68-6.75l15.14-11.67c22.29-17.17 53.573-17.37 76.074-.48l13.76 10.33c12.51 9.38 30.02 8.6 41.652-1.84a62.64 62.64 0 0 1 41.992-16.091h.82c15.84.2 30.892 6.32 42.382 17.2 6.02 5.7 6.28 15.19.58 21.21z" fill="#86c983"/><path d="M271.807 73.226v51.963a15.01 15.01 0 0 1-15.001 15.001V73.226h15z" fill="#ffe89c"/></svg>