<svg xmlns="http://www.w3.org/2000/svg" width="512" height="512" fill="none"><path d="M256 0C114.836 0 0 114.836 0 256s114.836 256 256 256 256-114.836 256-256S397.164 0 256 0z" fill="#ffb655"/><path d="M256 0A256 256 0 0 0 0 256a256 256 0 0 0 256 256V0z" fill="#ffc477"/><path d="M385.75 201.75L247.082 340.414c-4.16 4.16-9.62 6.254-15.082 6.254s-10.922-2.094-15.082-6.254l-69.332-69.332c-8.344-8.34-8.344-21.824 0-30.164s21.82-8.344 30.164 0l54.25 54.25 123.586-123.582c8.34-8.344 21.82-8.344 30.164 0s8.34 21.82 0 30.164h0z" fill="#98981a"/><path d="M231.672 346.34c5.46 0 10.922-2.094 15.082-6.254L256 330.84v-60.328l-24.328 24.328-54.25-54.25c-8.344-8.344-21.824-8.344-30.164 0s-8.344 21.824 0 30.164l69.332 69.332c4.16 4.16 9.62 6.254 15.082 6.254z" fill="#b5b51f"/></svg>